<?xml version="1.0" encoding="utf-8"?>
<!-- Generator: Adobe Illustrator 23.0.2, SVG Export Plug-In . SVG Version: 6.00 Build 0)  -->
<svg version="1.1" id="Õ_xBA__x2264__x201E__x5F_1"
	 xmlns="http://www.w3.org/2000/svg" xmlns:xlink="http://www.w3.org/1999/xlink" x="0px" y="0px" viewBox="0 0 638.09 931.374"
	 style="enable-background:new 0 0 638.09 931.374;" xml:space="preserve">
<style type="text/css">
	.st0{fill:none;stroke:#2C282C;stroke-width:0.6;stroke-miterlimit:10;}
	.st1{fill:#2C282C;}
	.st2{opacity:0.35;}
	.st3{opacity:0.7;fill:#85EA2D;}
	.st4{opacity:0.8;fill:#38B832;}
	.st5{opacity:0.8;fill:#63DB2A;}
	.st6{fill:#93D500;}
	.st7{fill:#4D5A31;}
	.st8{fill:#6BA43A;}
	.st9{fill:#424143;}
</style>
<g>
	<g>
		<g>
			<g>
				<polygon class="st0" points="62.077,381.058 62.368,422.158 97.974,442.822 132.54,421.895 132.33,380.696 97.497,360.6 				"/>
				<polyline class="st0" points="62.077,381.058 97.699,401.132 132.22,380.917 				"/>
				<line class="st0" x1="97.699" y1="401.132" x2="97.974" y2="442.822"/>
			</g>
			<polygon class="st0" points="132.662,437.838 132.18,341.664 215.715,389.331 216.157,458.194 275.795,492.276 274.928,589.044 
				191.904,540.5 192.177,471.802 			"/>
			<g>
				<polygon class="st0" points="34.235,473.118 34.675,562.773 112.364,607.908 112.76,517.77 				"/>
				<polyline class="st0" points="34.235,473.118 158.59,399.334 238.723,444.942 237.65,536.938 112.364,607.908 				"/>
				<polygon class="st0" points="97.888,526.326 97.131,508.931 159.289,472.921 174.949,481.859 174.852,499.89 112.572,535.688 
									"/>
			</g>
			<g>
				<polygon class="st0" points="168.713,568.637 168.723,608.931 204.269,630.575 239.11,609.811 239.336,568.268 205.39,548.239 
									"/>
				<polyline class="st0" points="168.713,568.637 204.334,588.711 239.336,568.268 				"/>
				<line class="st0" x1="204.334" y1="588.711" x2="204.269" y2="630.223"/>
			</g>
			<g>
				<polygon class="st0" points="275.187,637.41 275.779,734.531 300.182,749.063 325.32,734.2 325.206,637.41 300.212,623.323 				
					"/>
				<polyline class="st0" points="275.284,637.512 300.44,652.072 325.1,637.54 				"/>
			</g>
			<polyline class="st0" points="275.795,492.276 300.88,478.568 324.688,492.287 			"/>
			<polyline class="st0" points="275.119,589.21 300.343,575.46 324.77,589.21 			"/>
			<g>
				<polygon class="st0" points="115.614,273.671 31.376,224.917 6.663,238.728 6.936,267.853 90.303,316.812 115.1,302.383 				"/>
				<polyline class="st0" points="115.431,273.963 90.193,287.962 90.177,316.71 				"/>
			</g>
			<polygon class="st0" points="467.218,437.926 467.701,341.751 384.165,389.419 383.724,458.282 324.086,492.364 324.952,589.132 
				407.977,540.588 406.678,472.072 			"/>
			<g>
				<polygon class="st0" points="566.196,474.19 565.756,563.844 488.067,608.98 487.671,518.841 				"/>
				<polyline class="st0" points="566.196,474.19 441.84,400.406 361.707,446.014 362.781,538.01 488.067,608.98 				"/>
				<polygon class="st0" points="502.542,527.397 503.299,510.003 441.141,473.993 424.733,482.641 425.578,500.962 487.859,536.76 
									"/>
			</g>
			<g>
				<polygon class="st0" points="359.449,569.173 359.382,609.372 394.927,631.015 429.768,610.251 429.994,568.708 
					394.568,548.586 				"/>
				<polyline class="st0" points="359.371,569.078 394.993,589.151 429.994,568.708 				"/>
				<line class="st0" x1="394.993" y1="589.151" x2="394.927" y2="630.664"/>
			</g>
			<g>
				<polygon class="st0" points="467.552,382.041 467.339,422.229 503.108,443.979 537.949,423.215 538.175,381.672 
					502.971,361.584 				"/>
				<polyline class="st0" points="467.552,382.041 503.173,402.115 538.175,381.672 				"/>
				<line class="st0" x1="503.173" y1="402.115" x2="503.108" y2="443.627"/>
			</g>
			<g>
				<polygon class="st0" points="156.682,217.079 156.693,257.373 192.238,279.017 227.145,259.149 227.305,216.71 192.101,196.622 
									"/>
				<polyline class="st0" points="156.682,217.079 192.304,237.153 227.305,216.71 				"/>
				<line class="st0" x1="192.304" y1="237.153" x2="192.238" y2="278.665"/>
			</g>
			<g>
				<polygon class="st0" points="374.158,217.043 374.757,258.863 409.714,278.981 444.555,258.217 444.781,216.674 
					409.578,196.586 				"/>
				<polyline class="st0" points="374.158,217.043 409.78,237.117 444.781,216.674 				"/>
				<line class="st0" x1="409.78" y1="237.117" x2="409.714" y2="278.629"/>
			</g>
			<g>
				<polygon class="st0" points="510.568,317.608 594.164,267.522 594.008,239.32 569.063,225.247 485.139,274.535 485.715,303.22 
									"/>
				<polyline class="st0" points="510.715,317.614 510.591,288.074 485.394,274.458 				"/>
			</g>
			<g>
				<polygon class="st0" points="378.825,146.972 301.21,102.385 222.275,147.633 301.21,192.88 				"/>
				<polyline class="st0" points="378.825,146.972 380.397,291.232 300.942,338.011 221.699,291.268 222.085,147.389 				"/>
				<polygon class="st0" points="301.16,176.014 316.622,184.019 316.403,256.623 301.347,264.983 285.758,255.92 285.729,184.085 
									"/>
			</g>
			<polygon class="st0" points="241.846,250.772 158.289,298.395 241.311,346.951 301.188,312.936 360.504,347.575 443.901,298.487 
				360.375,250.811 300.998,285.365 			"/>
			<polyline class="st0" points="241.169,346.934 240.77,376.513 216.124,389.342 			"/>
			<polyline class="st0" points="158.091,298.568 157.302,327.11 132.11,341.394 			"/>
			<polyline class="st0" points="384.171,389.342 361.017,375.496 360.63,347.468 			"/>
			<polyline class="st0" points="467.834,341.504 444.521,326.938 444.137,298.568 			"/>
		</g>
		<g>
			<circle class="st1" cx="215.42" cy="388.836" r="5.279"/>
			<circle class="st1" cx="383.819" cy="388.836" r="5.279"/>
			<circle class="st1" cx="323.991" cy="491.6" r="5.279"/>
			<circle class="st1" cx="276.128" cy="491.6" r="5.279"/>
			<circle class="st1" cx="241.009" cy="346.252" r="5.279"/>
			<circle class="st1" cx="360.592" cy="347.308" r="5.279"/>
			<circle class="st1" cx="394.641" cy="589.173" r="5.279"/>
			<circle class="st1" cx="204.334" cy="588.733" r="5.279"/>
			<circle class="st1" cx="97.742" cy="400.801" r="5.279"/>
			<circle class="st1" cx="191.995" cy="237.462" r="5.279"/>
			<circle class="st1" cx="409.862" cy="237.153" r="5.279"/>
			<circle class="st1" cx="503.124" cy="401.614" r="5.279"/>
		</g>
	</g>
	<g class="st2">
		<g>
			<polygon class="st0" points="300.549,687.818 203.915,632.897 107.718,688.631 204.089,743.909 			"/>
			<polyline class="st0" points="300.549,687.818 300.109,865.76 204.617,923.131 107.008,865.554 107.484,688.331 			"/>
		</g>
		<g>
			<polygon class="st0" points="633.525,100.867 467.038,6.247 301.305,102.269 467.339,197.504 			"/>
			<polyline class="st0" points="634.185,101.064 633.467,412.183 468.908,509.248 300.743,410.053 301.21,102.385 			"/>
		</g>
		<g>
			<polygon class="st0" points="233.489,372.747 233.509,447.297 300.697,487.34 366.679,450.582 366.982,372.064 300.88,334.568 
							"/>
			<polyline class="st0" points="233.489,372.747 300.821,409.886 366.982,372.064 			"/>
			<line class="st0" x1="300.821" y1="409.886" x2="300.697" y2="486.689"/>
		</g>
		<g>
			<polygon class="st0" points="18.935,622.548 18.946,664.794 56.213,687.487 92.811,666.656 92.979,622.161 56.07,601.1 			"/>
			<polyline class="st0" points="18.935,622.548 56.282,643.594 92.979,622.161 			"/>
			<line class="st0" x1="56.282" y1="643.594" x2="56.213" y2="687.118"/>
		</g>
		<g>
			<polygon class="st0" points="470.917,704.303 387.732,654.912 361.967,669.361 361.909,698.901 445.606,747.444 470.404,733.015 
							"/>
			<polyline class="st0" points="470.734,704.595 445.496,718.594 445.481,747.342 			"/>
		</g>
	</g>
	<g>
		<polygon class="st3" points="301.633,356.213 346.788,383.285 300.845,409.81 254.903,383.285 		"/>
		<polygon class="st4" points="300.845,462.86 300.845,409.81 346.788,383.285 346.788,436.335 		"/>
		<polygon class="st5" points="254.903,436.335 254.903,383.285 300.845,409.81 300.845,462.86 		"/>
	</g>
</g>
</svg>
